# xmcd
#
# Track frame offsets: 
#        150
#        10990
#        21632
#        34690
#        52880
#        65412
#        80535
#        94347
#        108252
#        122237
#        135992
#        153062
#        165827
#        180637
#        196952
#        211110
#
# Disc length: 2957 seconds
#
# Revision: 0
# Processed by: cddbd v1.4PL0 Copyright (c) Steve Scherf et al.
# Submitted via: ExactAudioCopy v0.90b4
#
DISCID=c60b8b10
DTITLE=Various Artist - An Amazing Country Gospel Collection
DYEAR=1900
DGENRE=Gospel
TTITLE0=The Jordanaires/Power in the Blood
TTITLE1=Eddy Raven/Love Lifted Me
TTITLE2=Patsy Cline/Life's a Railway to Heaven
TTITLE3=T. Graham Brown/The Old Rugged Cross
TTITLE4=Sandy Posey/Blessed Assurance
TTITLE5=The Jordanaires/Swing Low Sweet Chariot
TTITLE6=Deborah Allen/In the Sweet By and By
TTITLE7=Lee Greenwood/Amazing Grace
TTITLE8=Ed Bruce/He Lives
TTITLE9=Deborah Allen/He's Got the Whole World in His Hands
TTITLE10=Bill Anderson/Pass Me Not Oh Gentle Saviour
TTITLE11=Patsy Cline/Just a Closer Walk with Thee
TTITLE12=T. Graham Brown/Rock of Ages
TTITLE13=Sandy Posey/What a Friend We Have in Jesus
TTITLE14=Eddy Raven/Leaning on the Everlasting Arms
TTITLE15=Ed Bruce/The Lord's Prayer
EXTD=
EXTT0=
EXTT1=
EXTT2=
EXTT3=
EXTT4=
EXTT5=
EXTT6=
EXTT7=
EXTT8=
EXTT9=
EXTT10=
EXTT11=
EXTT12=
EXTT13=
EXTT14=
EXTT15=
PLAYORDER=
